<svg xmlns="http://www.w3.org/2000/svg" xmlns:xlink="http://www.w3.org/1999/xlink" width="500" zoomAndPan="magnify" viewBox="0 0 375 374.999991" height="500" preserveAspectRatio="xMidYMid meet" version="1.0"><defs><g/><clipPath id="49e7d65698"><path d="M 7.316406 11.101562 L 367.316406 11.101562 L 367.316406 371.101562 L 7.316406 371.101562 Z M 7.316406 11.101562 " clip-rule="nonzero"/></clipPath></defs><rect x="-37.5" width="450" fill="#ffffff" y="-37.499999" height="449.999989" fill-opacity="1"/><rect x="-37.5" width="450" fill="#f1efe7" y="-37.499999" height="449.999989" fill-opacity="1"/><g clip-path="url(#49e7d65698)"><path fill="#000000" d="M 187.316406 11.101562 C 88 11.101562 7.316406 91.789062 7.316406 191.101562 C 7.316406 290.414062 88 371.101562 187.316406 371.101562 C 286.628906 371.101562 367.316406 290.414062 367.316406 191.101562 C 367.316406 91.789062 286.628906 11.101562 187.316406 11.101562 Z M 187.316406 18.925781 C 282.503906 18.925781 359.488281 95.910156 359.488281 191.101562 C 359.488281 286.289062 282.503906 363.273438 187.316406 363.273438 C 92.125 363.273438 15.140625 286.289062 15.140625 191.101562 C 15.140625 95.910156 92.125 18.925781 187.316406 18.925781 Z M 187.316406 18.925781 " fill-opacity="1" fill-rule="nonzero"/></g><g fill="#000000" fill-opacity="1"><g transform="translate(71.483725, 218.297803)"><g><path d="M 30.515625 -101.5 L 30.515625 0 L 7.375 0 L 7.375 -101.5 Z M 30.515625 -101.5 "/></g></g></g><g fill="#000000" fill-opacity="1"><g transform="translate(97.803338, 218.297803)"><g><path d="M 7.375 -101.5 L 38.875 -101.5 C 48.394531 -101.5 55.984375 -99.46875 61.640625 -95.40625 C 67.296875 -91.351562 70.125 -84.773438 70.125 -75.671875 C 70.125 -65.492188 65.898438 -58.234375 57.453125 -53.890625 C 71.890625 -51.347656 79.109375 -42.816406 79.109375 -28.296875 C 79.109375 -19.765625 76.15625 -12.914062 70.25 -7.75 C 64.34375 -2.582031 56.222656 0 45.890625 0 L 7.375 0 Z M 30.515625 -61.765625 L 32.359375 -61.765625 C 37.523438 -61.765625 41.378906 -62.664062 43.921875 -64.46875 C 46.460938 -66.269531 47.734375 -69.222656 47.734375 -73.328125 C 47.734375 -80.210938 42.609375 -83.65625 32.359375 -83.65625 L 30.515625 -83.65625 Z M 30.515625 -17.84375 L 37.765625 -17.84375 C 49.085938 -17.84375 54.75 -21.613281 54.75 -29.15625 C 54.75 -33.664062 53.332031 -36.90625 50.5 -38.875 C 47.675781 -40.84375 43.429688 -41.828125 37.765625 -41.828125 L 30.515625 -41.828125 Z M 30.515625 -17.84375 "/></g></g></g><g fill="#000000" fill-opacity="1"><g transform="translate(168.158566, 218.297803)"><g><path d="M 7.375 -101.5 L 44.421875 -101.5 C 54.753906 -101.5 63.117188 -98.832031 69.515625 -93.5 C 75.910156 -88.164062 79.109375 -80.414062 79.109375 -70.25 C 79.109375 -60.082031 75.867188 -52.101562 69.390625 -46.3125 C 62.910156 -40.53125 54.585938 -37.640625 44.421875 -37.640625 L 30.515625 -37.640625 L 30.515625 0 L 7.375 0 Z M 30.515625 -56.109375 L 37.03125 -56.109375 C 42.195312 -56.109375 46.441406 -57.148438 49.765625 -59.234375 C 53.085938 -61.328125 54.75 -64.753906 54.75 -69.515625 C 54.75 -74.347656 53.085938 -77.8125 49.765625 -79.90625 C 46.441406 -82 42.195312 -83.046875 37.03125 -83.046875 L 30.515625 -83.046875 Z M 30.515625 -56.109375 "/></g></g></g><g fill="#000000" fill-opacity="1"><g transform="translate(238.513795, 218.297803)"><g/></g></g><g fill="#000000" fill-opacity="1"><g transform="translate(260.52825, 218.297803)"><g><path d="M 21.40625 -26.328125 C 25.34375 -26.328125 28.6875 -24.953125 31.4375 -22.203125 C 34.1875 -19.453125 35.5625 -16.113281 35.5625 -12.1875 C 35.5625 -8.320312 34.1875 -5.015625 31.4375 -2.265625 C 28.6875 0.472656 25.34375 1.84375 21.40625 1.84375 C 17.550781 1.84375 14.25 0.472656 11.5 -2.265625 C 8.75 -5.015625 7.375 -8.320312 7.375 -12.1875 C 7.375 -16.113281 8.75 -19.453125 11.5 -22.203125 C 14.25 -24.953125 17.550781 -26.328125 21.40625 -26.328125 Z M 21.40625 -26.328125 "/></g></g></g><g fill="#000000" fill-opacity="1"><g transform="translate(117.882159, 251.634109)"><g><path d="M 17.109375 -17.34375 C 17.429688 -17.332031 17.707031 -17.210938 17.9375 -16.984375 C 18.175781 -16.765625 18.296875 -16.488281 18.296875 -16.15625 L 18.296875 -1.1875 C 18.296875 -0.851562 18.179688 -0.570312 17.953125 -0.34375 C 17.734375 -0.113281 17.441406 0 17.078125 0 C 16.710938 0 16.414062 -0.109375 16.1875 -0.328125 C 15.957031 -0.554688 15.84375 -0.84375 15.84375 -1.1875 L 15.84375 -12.640625 L 11.03125 -5.375 C 10.914062 -5.21875 10.769531 -5.085938 10.59375 -4.984375 C 10.425781 -4.890625 10.253906 -4.851562 10.078125 -4.875 C 9.910156 -4.851562 9.738281 -4.890625 9.5625 -4.984375 C 9.394531 -5.085938 9.25 -5.21875 9.125 -5.375 L 4.3125 -12.875 L 4.3125 -1.1875 C 4.3125 -0.84375 4.207031 -0.554688 4 -0.328125 C 3.789062 -0.109375 3.515625 0 3.171875 0 C 2.835938 0 2.566406 -0.109375 2.359375 -0.328125 C 2.148438 -0.554688 2.046875 -0.84375 2.046875 -1.1875 L 2.046875 -16.15625 C 2.046875 -16.46875 2.160156 -16.742188 2.390625 -16.984375 C 2.628906 -17.222656 2.921875 -17.34375 3.265625 -17.34375 C 3.460938 -17.34375 3.65625 -17.289062 3.84375 -17.1875 C 4.039062 -17.09375 4.195312 -16.96875 4.3125 -16.8125 L 10.171875 -7.921875 L 16.109375 -16.8125 C 16.378906 -17.164062 16.710938 -17.34375 17.109375 -17.34375 Z M 17.109375 -17.34375 "/></g></g></g><g fill="#000000" fill-opacity="1"><g transform="translate(154.369514, 251.634109)"><g><path d="M 14.328125 -17.34375 C 14.671875 -17.34375 14.945312 -17.234375 15.15625 -17.015625 C 15.363281 -16.796875 15.46875 -16.507812 15.46875 -16.15625 L 15.46875 -6.65625 C 15.46875 -5.351562 15.175781 -4.179688 14.59375 -3.140625 C 14.019531 -2.097656 13.222656 -1.285156 12.203125 -0.703125 C 11.191406 -0.117188 10.050781 0.171875 8.78125 0.171875 C 7.5 0.171875 6.34375 -0.117188 5.3125 -0.703125 C 4.289062 -1.285156 3.488281 -2.097656 2.90625 -3.140625 C 2.332031 -4.179688 2.046875 -5.351562 2.046875 -6.65625 L 2.046875 -16.15625 C 2.046875 -16.507812 2.160156 -16.796875 2.390625 -17.015625 C 2.628906 -17.234375 2.929688 -17.34375 3.296875 -17.34375 C 3.609375 -17.34375 3.882812 -17.226562 4.125 -17 C 4.363281 -16.769531 4.484375 -16.488281 4.484375 -16.15625 L 4.484375 -6.65625 C 4.484375 -5.800781 4.679688 -5.03125 5.078125 -4.34375 C 5.472656 -3.65625 6 -3.117188 6.65625 -2.734375 C 7.3125 -2.359375 8.019531 -2.171875 8.78125 -2.171875 C 9.570312 -2.171875 10.304688 -2.359375 10.984375 -2.734375 C 11.660156 -3.117188 12.203125 -3.65625 12.609375 -4.34375 C 13.015625 -5.03125 13.21875 -5.800781 13.21875 -6.65625 L 13.21875 -16.15625 C 13.21875 -16.507812 13.316406 -16.796875 13.515625 -17.015625 C 13.710938 -17.234375 13.984375 -17.34375 14.328125 -17.34375 Z M 14.328125 -17.34375 "/></g></g></g><g fill="#000000" fill-opacity="1"><g transform="translate(188.035678, 251.634109)"><g><path d="M 7.296875 0.25 C 6.097656 0.25 5.035156 0.0820312 4.109375 -0.25 C 3.179688 -0.59375 2.296875 -1.144531 1.453125 -1.90625 C 1.109375 -2.195312 0.9375 -2.535156 0.9375 -2.921875 C 0.9375 -3.210938 1.050781 -3.476562 1.28125 -3.71875 C 1.519531 -3.957031 1.796875 -4.078125 2.109375 -4.078125 C 2.390625 -4.078125 2.628906 -3.988281 2.828125 -3.8125 C 3.484375 -3.195312 4.160156 -2.742188 4.859375 -2.453125 C 5.566406 -2.171875 6.363281 -2.03125 7.25 -2.03125 C 8.289062 -2.03125 9.171875 -2.269531 9.890625 -2.75 C 10.609375 -3.226562 10.96875 -3.828125 10.96875 -4.546875 C 10.945312 -5.410156 10.582031 -6.078125 9.875 -6.546875 C 9.175781 -7.015625 8.113281 -7.40625 6.6875 -7.71875 C 4.988281 -8.0625 3.679688 -8.628906 2.765625 -9.421875 C 1.847656 -10.222656 1.390625 -11.320312 1.390625 -12.71875 C 1.390625 -13.695312 1.644531 -14.550781 2.15625 -15.28125 C 2.664062 -16.019531 3.375 -16.585938 4.28125 -16.984375 C 5.1875 -17.378906 6.207031 -17.578125 7.34375 -17.578125 C 8.375 -17.578125 9.34375 -17.410156 10.25 -17.078125 C 11.15625 -16.742188 11.890625 -16.304688 12.453125 -15.765625 C 12.828125 -15.429688 13.015625 -15.078125 13.015625 -14.703125 C 13.015625 -14.398438 12.898438 -14.132812 12.671875 -13.90625 C 12.453125 -13.675781 12.1875 -13.5625 11.875 -13.5625 C 11.644531 -13.5625 11.457031 -13.628906 11.3125 -13.765625 C 10.882812 -14.191406 10.289062 -14.550781 9.53125 -14.84375 C 8.769531 -15.144531 8.039062 -15.296875 7.34375 -15.296875 C 6.238281 -15.296875 5.359375 -15.066406 4.703125 -14.609375 C 4.054688 -14.160156 3.734375 -13.566406 3.734375 -12.828125 C 3.734375 -12.015625 4.054688 -11.394531 4.703125 -10.96875 C 5.359375 -10.539062 6.332031 -10.175781 7.625 -9.875 C 8.90625 -9.59375 9.953125 -9.257812 10.765625 -8.875 C 11.585938 -8.5 12.222656 -7.972656 12.671875 -7.296875 C 13.117188 -6.617188 13.34375 -5.738281 13.34375 -4.65625 C 13.34375 -3.695312 13.070312 -2.84375 12.53125 -2.09375 C 12 -1.351562 11.269531 -0.773438 10.34375 -0.359375 C 9.414062 0.046875 8.398438 0.25 7.296875 0.25 Z M 7.296875 0.25 "/></g></g></g><g fill="#000000" fill-opacity="1"><g transform="translate(218.583711, 251.634109)"><g><path d="M 4.5 -1.21875 C 4.5 -0.863281 4.375 -0.570312 4.125 -0.34375 C 3.882812 -0.113281 3.597656 0 3.265625 0 C 2.898438 0 2.601562 -0.113281 2.375 -0.34375 C 2.15625 -0.570312 2.046875 -0.863281 2.046875 -1.21875 L 2.046875 -16.140625 C 2.046875 -16.460938 2.160156 -16.738281 2.390625 -16.96875 C 2.628906 -17.207031 2.929688 -17.328125 3.296875 -17.328125 C 3.617188 -17.328125 3.898438 -17.207031 4.140625 -16.96875 C 4.378906 -16.738281 4.5 -16.460938 4.5 -16.140625 Z M 4.5 -1.21875 "/></g></g></g><g fill="#000000" fill-opacity="1"><g transform="translate(241.286864, 251.634109)"><g><path d="M 14.40625 -16.3125 C 14.800781 -16.09375 15 -15.757812 15 -15.3125 C 15 -15.019531 14.898438 -14.75 14.703125 -14.5 C 14.503906 -14.238281 14.234375 -14.109375 13.890625 -14.109375 C 13.648438 -14.109375 13.425781 -14.164062 13.21875 -14.28125 C 12.195312 -14.851562 11.09375 -15.140625 9.90625 -15.140625 C 8.664062 -15.140625 7.570312 -14.867188 6.625 -14.328125 C 5.675781 -13.785156 4.9375 -13.019531 4.40625 -12.03125 C 3.875 -11.050781 3.609375 -9.925781 3.609375 -8.65625 C 3.609375 -7.289062 3.878906 -6.113281 4.421875 -5.125 C 4.972656 -4.132812 5.726562 -3.378906 6.6875 -2.859375 C 7.644531 -2.335938 8.71875 -2.078125 9.90625 -2.078125 C 11.125 -2.078125 12.226562 -2.375 13.21875 -2.96875 C 13.414062 -3.070312 13.628906 -3.125 13.859375 -3.125 C 14.222656 -3.125 14.507812 -2.984375 14.71875 -2.703125 C 14.914062 -2.453125 15.015625 -2.1875 15.015625 -1.90625 C 15.015625 -1.707031 14.960938 -1.519531 14.859375 -1.34375 C 14.753906 -1.175781 14.609375 -1.039062 14.421875 -0.9375 C 13.785156 -0.570312 13.066406 -0.28125 12.265625 -0.0625 C 11.460938 0.144531 10.675781 0.25 9.90625 0.25 C 8.300781 0.25 6.828125 -0.101562 5.484375 -0.8125 C 4.140625 -1.519531 3.066406 -2.550781 2.265625 -3.90625 C 1.460938 -5.257812 1.0625 -6.84375 1.0625 -8.65625 C 1.0625 -10.320312 1.441406 -11.828125 2.203125 -13.171875 C 2.972656 -14.523438 4.03125 -15.582031 5.375 -16.34375 C 6.726562 -17.113281 8.238281 -17.5 9.90625 -17.5 C 11.5 -17.5 13 -17.101562 14.40625 -16.3125 Z M 14.40625 -16.3125 "/></g></g></g><g fill="#000000" fill-opacity="1"><g transform="translate(167.666996, 272.617353)"><g><path d="M 0.625 -1.25 C 0.53125 -1.382812 0.484375 -1.519531 0.484375 -1.65625 C 0.484375 -1.851562 0.585938 -2.023438 0.796875 -2.171875 C 0.898438 -2.242188 1.019531 -2.28125 1.15625 -2.28125 C 1.332031 -2.28125 1.5 -2.203125 1.65625 -2.046875 C 1.957031 -1.703125 2.28125 -1.441406 2.625 -1.265625 C 2.976562 -1.097656 3.394531 -1.015625 3.875 -1.015625 C 4.257812 -1.023438 4.597656 -1.113281 4.890625 -1.28125 C 5.179688 -1.445312 5.328125 -1.71875 5.328125 -2.09375 C 5.328125 -2.4375 5.175781 -2.695312 4.875 -2.875 C 4.582031 -3.0625 4.148438 -3.226562 3.578125 -3.375 C 3.015625 -3.53125 2.546875 -3.691406 2.171875 -3.859375 C 1.796875 -4.023438 1.476562 -4.265625 1.21875 -4.578125 C 0.957031 -4.898438 0.828125 -5.316406 0.828125 -5.828125 C 0.828125 -6.285156 0.957031 -6.6875 1.21875 -7.03125 C 1.476562 -7.375 1.820312 -7.640625 2.25 -7.828125 C 2.675781 -8.023438 3.144531 -8.125 3.65625 -8.125 C 4.132812 -8.125 4.613281 -8.03125 5.09375 -7.84375 C 5.570312 -7.664062 5.96875 -7.390625 6.28125 -7.015625 C 6.394531 -6.878906 6.453125 -6.734375 6.453125 -6.578125 C 6.453125 -6.410156 6.375 -6.253906 6.21875 -6.109375 C 6.113281 -6.015625 5.984375 -5.96875 5.828125 -5.96875 C 5.648438 -5.96875 5.503906 -6.03125 5.390625 -6.15625 C 5.179688 -6.394531 4.921875 -6.578125 4.609375 -6.703125 C 4.304688 -6.835938 3.96875 -6.90625 3.59375 -6.90625 C 3.207031 -6.90625 2.878906 -6.828125 2.609375 -6.671875 C 2.347656 -6.515625 2.21875 -6.25 2.21875 -5.875 C 2.226562 -5.519531 2.378906 -5.253906 2.671875 -5.078125 C 2.972656 -4.910156 3.429688 -4.75 4.046875 -4.59375 C 4.578125 -4.445312 5.019531 -4.289062 5.375 -4.125 C 5.726562 -3.96875 6.023438 -3.726562 6.265625 -3.40625 C 6.515625 -3.09375 6.640625 -2.679688 6.640625 -2.171875 C 6.640625 -1.691406 6.5 -1.273438 6.21875 -0.921875 C 5.945312 -0.578125 5.59375 -0.3125 5.15625 -0.125 C 4.71875 0.0625 4.253906 0.15625 3.765625 0.15625 C 3.117188 0.15625 2.523438 0.046875 1.984375 -0.171875 C 1.453125 -0.398438 1 -0.757812 0.625 -1.25 Z M 0.625 -1.25 "/></g></g></g><g fill="#000000" fill-opacity="1"><g transform="translate(175.804117, 272.617353)"><g><path d="M 2.4375 -0.734375 C 2.4375 -0.523438 2.367188 -0.347656 2.234375 -0.203125 C 2.097656 -0.0664062 1.925781 0 1.71875 0 C 1.507812 0 1.335938 -0.0664062 1.203125 -0.203125 C 1.066406 -0.347656 1 -0.523438 1 -0.734375 L 1 -7.296875 C 1 -7.492188 1.066406 -7.660156 1.203125 -7.796875 C 1.335938 -7.941406 1.507812 -8.015625 1.71875 -8.015625 C 1.925781 -8.015625 2.097656 -7.941406 2.234375 -7.796875 C 2.367188 -7.660156 2.4375 -7.492188 2.4375 -7.296875 Z M 1.703125 -9.015625 C 1.410156 -9.015625 1.203125 -9.066406 1.078125 -9.171875 C 0.953125 -9.285156 0.890625 -9.457031 0.890625 -9.6875 L 0.890625 -9.921875 C 0.890625 -10.171875 0.957031 -10.34375 1.09375 -10.4375 C 1.226562 -10.539062 1.4375 -10.59375 1.71875 -10.59375 C 2 -10.59375 2.203125 -10.539062 2.328125 -10.4375 C 2.453125 -10.332031 2.515625 -10.160156 2.515625 -9.921875 L 2.515625 -9.6875 C 2.515625 -9.445312 2.445312 -9.273438 2.3125 -9.171875 C 2.1875 -9.066406 1.984375 -9.015625 1.703125 -9.015625 Z M 1.703125 -9.015625 "/></g></g></g><g fill="#000000" fill-opacity="1"><g transform="translate(180.152995, 272.617353)"><g><path d="M 5.125 -8.125 C 6.9375 -8.125 7.84375 -7.03125 7.84375 -4.84375 L 7.84375 -0.734375 C 7.84375 -0.523438 7.773438 -0.347656 7.640625 -0.203125 C 7.503906 -0.0664062 7.332031 0 7.125 0 C 6.925781 0 6.753906 -0.0664062 6.609375 -0.203125 C 6.472656 -0.347656 6.40625 -0.523438 6.40625 -0.734375 L 6.40625 -4.828125 C 6.40625 -5.429688 6.269531 -5.910156 6 -6.265625 C 5.726562 -6.617188 5.285156 -6.796875 4.671875 -6.796875 C 4.265625 -6.796875 3.894531 -6.707031 3.5625 -6.53125 C 3.238281 -6.351562 2.984375 -6.113281 2.796875 -5.8125 C 2.609375 -5.507812 2.515625 -5.179688 2.515625 -4.828125 L 2.515625 -0.734375 C 2.515625 -0.523438 2.445312 -0.347656 2.3125 -0.203125 C 2.175781 -0.0664062 2 0 1.78125 0 C 1.570312 0 1.398438 -0.0664062 1.265625 -0.203125 C 1.140625 -0.335938 1.078125 -0.515625 1.078125 -0.734375 L 1.078125 -7.21875 C 1.078125 -7.414062 1.144531 -7.582031 1.28125 -7.71875 C 1.414062 -7.863281 1.582031 -7.9375 1.78125 -7.9375 C 2 -7.9375 2.175781 -7.863281 2.3125 -7.71875 C 2.445312 -7.582031 2.515625 -7.414062 2.515625 -7.21875 L 2.515625 -6.6875 C 2.773438 -7.09375 3.140625 -7.429688 3.609375 -7.703125 C 4.078125 -7.984375 4.582031 -8.125 5.125 -8.125 Z M 5.125 -8.125 "/></g></g></g><g fill="#000000" fill-opacity="1"><g transform="translate(189.987243, 272.617353)"><g><path d="M 4.53125 -8.125 C 5.332031 -8.125 6 -7.992188 6.53125 -7.734375 C 7.0625 -7.484375 7.328125 -7.164062 7.328125 -6.78125 C 7.328125 -6.601562 7.269531 -6.445312 7.15625 -6.3125 C 7.039062 -6.175781 6.898438 -6.109375 6.734375 -6.109375 C 6.597656 -6.109375 6.492188 -6.128906 6.421875 -6.171875 C 6.347656 -6.210938 6.242188 -6.273438 6.109375 -6.359375 C 6.046875 -6.421875 5.945312 -6.492188 5.8125 -6.578125 C 5.695312 -6.640625 5.523438 -6.691406 5.296875 -6.734375 C 5.078125 -6.773438 4.878906 -6.796875 4.703125 -6.796875 C 4.171875 -6.796875 3.703125 -6.671875 3.296875 -6.421875 C 2.898438 -6.179688 2.585938 -5.847656 2.359375 -5.421875 C 2.140625 -4.992188 2.03125 -4.515625 2.03125 -3.984375 C 2.03125 -3.453125 2.140625 -2.972656 2.359375 -2.546875 C 2.578125 -2.117188 2.878906 -1.785156 3.265625 -1.546875 C 3.660156 -1.304688 4.113281 -1.1875 4.625 -1.1875 C 5.144531 -1.1875 5.566406 -1.265625 5.890625 -1.421875 C 5.960938 -1.460938 6.0625 -1.53125 6.1875 -1.625 C 6.28125 -1.707031 6.363281 -1.765625 6.4375 -1.796875 C 6.519531 -1.835938 6.617188 -1.859375 6.734375 -1.859375 C 6.929688 -1.859375 7.085938 -1.796875 7.203125 -1.671875 C 7.316406 -1.546875 7.375 -1.382812 7.375 -1.1875 C 7.375 -0.96875 7.238281 -0.753906 6.96875 -0.546875 C 6.707031 -0.347656 6.351562 -0.179688 5.90625 -0.046875 C 5.457031 0.0859375 4.972656 0.15625 4.453125 0.15625 C 3.679688 0.15625 3.003906 -0.0195312 2.421875 -0.375 C 1.835938 -0.738281 1.382812 -1.234375 1.0625 -1.859375 C 0.75 -2.492188 0.59375 -3.203125 0.59375 -3.984375 C 0.59375 -4.765625 0.757812 -5.46875 1.09375 -6.09375 C 1.425781 -6.726562 1.890625 -7.222656 2.484375 -7.578125 C 3.078125 -7.941406 3.757812 -8.125 4.53125 -8.125 Z M 4.53125 -8.125 "/></g></g></g><g fill="#000000" fill-opacity="1"><g transform="translate(198.685021, 272.617353)"><g><path d="M 8.046875 -4.28125 C 8.035156 -4.09375 7.957031 -3.9375 7.8125 -3.8125 C 7.675781 -3.6875 7.515625 -3.625 7.328125 -3.625 L 1.984375 -3.625 C 2.054688 -2.882812 2.335938 -2.289062 2.828125 -1.84375 C 3.316406 -1.40625 3.914062 -1.1875 4.625 -1.1875 C 5.101562 -1.1875 5.492188 -1.253906 5.796875 -1.390625 C 6.109375 -1.535156 6.378906 -1.71875 6.609375 -1.9375 C 6.753906 -2.03125 6.898438 -2.078125 7.046875 -2.078125 C 7.222656 -2.078125 7.367188 -2.015625 7.484375 -1.890625 C 7.597656 -1.773438 7.65625 -1.632812 7.65625 -1.46875 C 7.65625 -1.257812 7.550781 -1.066406 7.34375 -0.890625 C 7.050781 -0.597656 6.660156 -0.347656 6.171875 -0.140625 C 5.691406 0.0546875 5.203125 0.15625 4.703125 0.15625 C 3.878906 0.15625 3.15625 -0.015625 2.53125 -0.359375 C 1.914062 -0.703125 1.4375 -1.179688 1.09375 -1.796875 C 0.757812 -2.421875 0.59375 -3.117188 0.59375 -3.890625 C 0.59375 -4.742188 0.765625 -5.488281 1.109375 -6.125 C 1.460938 -6.769531 1.921875 -7.265625 2.484375 -7.609375 C 3.054688 -7.953125 3.671875 -8.125 4.328125 -8.125 C 4.984375 -8.125 5.59375 -7.957031 6.15625 -7.625 C 6.71875 -7.289062 7.171875 -6.828125 7.515625 -6.234375 C 7.859375 -5.648438 8.035156 -5 8.046875 -4.28125 Z M 4.328125 -6.796875 C 3.765625 -6.796875 3.273438 -6.632812 2.859375 -6.3125 C 2.453125 -5.988281 2.179688 -5.492188 2.046875 -4.828125 L 6.515625 -4.828125 L 6.515625 -4.953125 C 6.460938 -5.492188 6.222656 -5.9375 5.796875 -6.28125 C 5.367188 -6.625 4.878906 -6.796875 4.328125 -6.796875 Z M 4.328125 -6.796875 "/></g></g></g><g fill="#000000" fill-opacity="1"><g transform="translate(169.265145, 286.507439)"><g><path d="M 7.09375 -1.328125 C 7.28125 -1.328125 7.441406 -1.257812 7.578125 -1.125 C 7.710938 -1 7.78125 -0.84375 7.78125 -0.65625 C 7.78125 -0.457031 7.710938 -0.296875 7.578125 -0.171875 C 7.441406 -0.0546875 7.28125 0 7.09375 0 L 1.71875 0 C 1.507812 0 1.335938 -0.0625 1.203125 -0.1875 C 1.078125 -0.3125 1.015625 -0.484375 1.015625 -0.703125 C 1.015625 -0.878906 1.085938 -1.050781 1.234375 -1.21875 L 4.609375 -4.875 C 5.546875 -5.875 6.015625 -6.757812 6.015625 -7.53125 C 6.015625 -8.070312 5.832031 -8.519531 5.46875 -8.875 C 5.113281 -9.238281 4.660156 -9.421875 4.109375 -9.421875 C 3.734375 -9.421875 3.375 -9.316406 3.03125 -9.109375 C 2.6875 -8.898438 2.410156 -8.597656 2.203125 -8.203125 C 2.035156 -7.984375 1.84375 -7.875 1.625 -7.875 C 1.445312 -7.875 1.28125 -7.941406 1.125 -8.078125 C 0.976562 -8.210938 0.90625 -8.363281 0.90625 -8.53125 C 0.90625 -8.644531 0.941406 -8.757812 1.015625 -8.875 C 1.097656 -9 1.207031 -9.144531 1.34375 -9.3125 C 1.675781 -9.75 2.097656 -10.097656 2.609375 -10.359375 C 3.128906 -10.628906 3.65625 -10.765625 4.1875 -10.765625 C 4.863281 -10.765625 5.445312 -10.625 5.9375 -10.34375 C 6.4375 -10.070312 6.816406 -9.695312 7.078125 -9.21875 C 7.347656 -8.75 7.484375 -8.207031 7.484375 -7.59375 C 7.484375 -6.425781 6.859375 -5.171875 5.609375 -3.828125 L 3.3125 -1.328125 Z M 7.09375 -1.328125 "/></g></g></g><g fill="#000000" fill-opacity="1"><g transform="translate(178.493267, 286.507439)"><g><path d="M 4.59375 0.15625 C 3.757812 0.15625 3.050781 -0.078125 2.46875 -0.546875 C 1.882812 -1.015625 1.441406 -1.65625 1.140625 -2.46875 C 0.847656 -3.289062 0.703125 -4.238281 0.703125 -5.3125 C 0.703125 -6.375 0.847656 -7.3125 1.140625 -8.125 C 1.441406 -8.945312 1.882812 -9.59375 2.46875 -10.0625 C 3.050781 -10.53125 3.757812 -10.765625 4.59375 -10.765625 C 5.414062 -10.765625 6.117188 -10.53125 6.703125 -10.0625 C 7.296875 -9.59375 7.738281 -8.945312 8.03125 -8.125 C 8.332031 -7.3125 8.484375 -6.375 8.484375 -5.3125 C 8.484375 -4.238281 8.332031 -3.289062 8.03125 -2.46875 C 7.738281 -1.65625 7.296875 -1.015625 6.703125 -0.546875 C 6.117188 -0.078125 5.414062 0.15625 4.59375 0.15625 Z M 4.59375 -1.296875 C 5.332031 -1.296875 5.90625 -1.644531 6.3125 -2.34375 C 6.71875 -3.039062 6.921875 -4.03125 6.921875 -5.3125 C 6.921875 -6.582031 6.71875 -7.566406 6.3125 -8.265625 C 5.90625 -8.960938 5.332031 -9.3125 4.59375 -9.3125 C 3.851562 -9.3125 3.28125 -8.960938 2.875 -8.265625 C 2.46875 -7.566406 2.265625 -6.582031 2.265625 -5.3125 C 2.265625 -4.03125 2.46875 -3.039062 2.875 -2.34375 C 3.28125 -1.644531 3.851562 -1.296875 4.59375 -1.296875 Z M 4.59375 -1.296875 "/></g></g></g><g fill="#000000" fill-opacity="1"><g transform="translate(188.585108, 286.507439)"><g><path d="M 7.09375 -1.328125 C 7.28125 -1.328125 7.441406 -1.257812 7.578125 -1.125 C 7.710938 -1 7.78125 -0.84375 7.78125 -0.65625 C 7.78125 -0.457031 7.710938 -0.296875 7.578125 -0.171875 C 7.441406 -0.0546875 7.28125 0 7.09375 0 L 1.71875 0 C 1.507812 0 1.335938 -0.0625 1.203125 -0.1875 C 1.078125 -0.3125 1.015625 -0.484375 1.015625 -0.703125 C 1.015625 -0.878906 1.085938 -1.050781 1.234375 -1.21875 L 4.609375 -4.875 C 5.546875 -5.875 6.015625 -6.757812 6.015625 -7.53125 C 6.015625 -8.070312 5.832031 -8.519531 5.46875 -8.875 C 5.113281 -9.238281 4.660156 -9.421875 4.109375 -9.421875 C 3.734375 -9.421875 3.375 -9.316406 3.03125 -9.109375 C 2.6875 -8.898438 2.410156 -8.597656 2.203125 -8.203125 C 2.035156 -7.984375 1.84375 -7.875 1.625 -7.875 C 1.445312 -7.875 1.28125 -7.941406 1.125 -8.078125 C 0.976562 -8.210938 0.90625 -8.363281 0.90625 -8.53125 C 0.90625 -8.644531 0.941406 -8.757812 1.015625 -8.875 C 1.097656 -9 1.207031 -9.144531 1.34375 -9.3125 C 1.675781 -9.75 2.097656 -10.097656 2.609375 -10.359375 C 3.128906 -10.628906 3.65625 -10.765625 4.1875 -10.765625 C 4.863281 -10.765625 5.445312 -10.625 5.9375 -10.34375 C 6.4375 -10.070312 6.816406 -9.695312 7.078125 -9.21875 C 7.347656 -8.75 7.484375 -8.207031 7.484375 -7.59375 C 7.484375 -6.425781 6.859375 -5.171875 5.609375 -3.828125 L 3.3125 -1.328125 Z M 7.09375 -1.328125 "/></g></g></g><g fill="#000000" fill-opacity="1"><g transform="translate(197.81323, 286.507439)"><g><path d="M 4.171875 -6.71875 C 4.742188 -6.71875 5.257812 -6.570312 5.71875 -6.28125 C 6.175781 -5.988281 6.535156 -5.59375 6.796875 -5.09375 C 7.066406 -4.601562 7.203125 -4.050781 7.203125 -3.4375 C 7.203125 -2.71875 7.035156 -2.085938 6.703125 -1.546875 C 6.367188 -1.003906 5.90625 -0.582031 5.3125 -0.28125 C 4.726562 0.0078125 4.054688 0.15625 3.296875 0.15625 C 2.898438 0.15625 2.507812 0.0976562 2.125 -0.015625 C 1.75 -0.128906 1.425781 -0.289062 1.15625 -0.5 C 0.882812 -0.65625 0.75 -0.863281 0.75 -1.125 C 0.75 -1.3125 0.816406 -1.484375 0.953125 -1.640625 C 1.085938 -1.804688 1.25 -1.890625 1.4375 -1.890625 C 1.625 -1.890625 1.804688 -1.828125 1.984375 -1.703125 C 2.398438 -1.316406 2.921875 -1.125 3.546875 -1.125 C 3.941406 -1.125 4.304688 -1.210938 4.640625 -1.390625 C 4.984375 -1.578125 5.253906 -1.835938 5.453125 -2.171875 C 5.660156 -2.515625 5.765625 -2.90625 5.765625 -3.34375 C 5.765625 -4 5.5625 -4.503906 5.15625 -4.859375 C 4.75 -5.210938 4.265625 -5.390625 3.703125 -5.390625 C 3.535156 -5.390625 3.300781 -5.359375 3 -5.296875 C 2.78125 -5.234375 2.613281 -5.203125 2.5 -5.203125 C 2.320312 -5.203125 2.175781 -5.265625 2.0625 -5.390625 C 1.945312 -5.515625 1.890625 -5.671875 1.890625 -5.859375 C 1.890625 -5.972656 1.910156 -6.070312 1.953125 -6.15625 C 1.992188 -6.238281 2.0625 -6.332031 2.15625 -6.4375 L 4.734375 -9.28125 L 1.234375 -9.28125 C 1.035156 -9.28125 0.867188 -9.34375 0.734375 -9.46875 C 0.609375 -9.601562 0.546875 -9.765625 0.546875 -9.953125 C 0.546875 -10.148438 0.609375 -10.304688 0.734375 -10.421875 C 0.867188 -10.546875 1.035156 -10.609375 1.234375 -10.609375 L 6.0625 -10.609375 C 6.289062 -10.609375 6.472656 -10.535156 6.609375 -10.390625 C 6.742188 -10.253906 6.8125 -10.082031 6.8125 -9.875 C 6.8125 -9.695312 6.710938 -9.515625 6.515625 -9.328125 Z M 4.171875 -6.71875 "/></g></g></g></svg>